# xmcd
#
# Track frame offsets: 
#        150
#        20795
#        35993
#        60977
#        83504
#        100122
#        119149
#        141239
#        158497
#        174670
#        200323
#
# Disc length: 2958 seconds
#
# Revision: 0
# Processed by: cddbd v1.5.2PL0 Copyright (c) Steve Scherf et al.
# Submitted via: ExactAudioCopy v0.99pb3
#
DISCID=920b8c0b
DTITLE=Alabama Mike - Tailor Made Blues
DYEAR=2010
DGENRE=Blues
TTITLE0=Tailor Made
TTITLE1=Ghetto Life
TTITLE2=Eddie Lee
TTITLE3=Go Ahead
TTITLE4=I'm Gone
TTITLE5=Enough To Keep Me Holding On
TTITLE6=Moon Dog Howl
TTITLE7=Stop Putting Me On
TTITLE8=Look Here Baby
TTITLE9=Hoo Doo Man
TTITLE10=Easiest Thing I'll Ever Do
EXTD=
EXTT0=
EXTT1=
EXTT2=
EXTT3=
EXTT4=
EXTT5=
EXTT6=
EXTT7=
EXTT8=
EXTT9=
EXTT10=
PLAYORDER=
